<?xml version="1.0" standalone="no"?><!DOCTYPE svg PUBLIC "-//W3C//DTD SVG 1.1//EN" "http://www.w3.org/Graphics/SVG/1.1/DTD/svg11.dtd"><svg t="1756550717028" class="icon" viewBox="0 0 1024 1024" version="1.1" xmlns="http://www.w3.org/2000/svg" p-id="1616" xmlns:xlink="http://www.w3.org/1999/xlink" width="200" height="200"><path d="M630.568421 339.536842c-16.168421-10.778947-37.726316-10.778947-48.505263 0-16.168421 10.778947-16.168421 21.557895 0 32.336842l26.947368 16.168421 129.347369 80.842106-129.347369 80.842105-26.947368 16.168421c-16.168421 10.778947-16.168421 21.557895 0 32.336842 5.389474 5.389474 16.168421 5.389474 26.947368 5.389474s21.557895 0 26.947369-5.389474L813.810526 485.052632c16.168421-10.778947 16.168421-21.557895 0-32.336843l-183.242105-113.178947zM393.431579 598.231579c16.168421 10.778947 37.726316 10.778947 48.505263 0 16.168421-10.778947 16.168421-21.557895 0-32.336842l-26.947368-16.168421-123.957895-80.842105 129.347368-80.842106 26.947369-16.168421c16.168421-10.778947 16.168421-21.557895 0-32.336842-5.389474-5.389474-16.168421-5.389474-26.947369-5.389474s-21.557895 0-26.947368 5.389474L210.189474 452.715789c-10.778947 10.778947-10.778947 21.557895 0 32.336843l183.242105 113.178947z" fill="#e6e6e6" p-id="1617"></path><path d="M512 926.989474C258.694737 926.989474 53.894737 722.189474 53.894737 468.884211S258.694737 10.778947 512 10.778947 970.105263 215.578947 970.105263 468.884211s-204.8 458.105263-458.105263 458.105263z m0-75.452632c210.189474 0 382.652632-172.463158 382.652632-382.652631s-172.463158-382.652632-382.652632-382.652632-382.652632 172.463158-382.652632 382.652632 172.463158 382.652632 382.652632 382.652631z m280.252632 59.284211c-16.168421-16.168421-10.778947-43.115789 5.389473-53.894737 16.168421-10.778947 43.115789-10.778947 53.894737 5.389473l70.063158 86.231579c16.168421 16.168421 10.778947 43.115789-5.389474 53.894737-16.168421 10.778947-43.115789 10.778947-53.894737-5.389473l-70.063157-86.231579z" fill="#e6e6e6" p-id="1618"></path></svg>